# xmcd CD database file
#
# Track frame offsets:
#	150
#	15877
#	22054
#	37096
#	57166
#	85035
#	98927
#	125774
#	138479
#	157490
#	168883
#	189418
#	204392
#	223535
#	246702
#	265737
#	281564
#
# Disc length: 3949 seconds
#
# Revision: 0
# Processed by: cddbd v1.5.1PL0 Copyright (c) Steve Scherf et al.
# Submitted via: Feurio! 1.66 - http://www.feurio.com
#
DISCID=f90f6b11
DTITLE=Calexico - Montréal 2003-03-20a
DYEAR=1900
DGENRE=Alternative
TTITLE0=Pepita
TTITLE1=Ode to Montréal-
TTITLE2=Across the Wire
TTITLE3=Quattro
TTITLE4=Sonic Wind
TTITLE5=The Ride, Part II
TTITLE6=Frontera/Trigger
TTITLE7=Close Behind (vocal)
TTITLE8=Woven Birds
TTITLE9=Sunken Waltz (w/Julie Penner)
TTITLE10=Black Heart (w/Julie Penner)
TTITLE11=El Picador
TTITLE12=Ballad of Cable Hogue (w/Leslie Feist)
TTITLE13=Mushaboom (w/Leslie Feist)
TTITLE14=Alone Again Or
TTITLE15=Not Even Leslie Feist
TTITLE16=Corona
EXTD=
EXTT0=
EXTT1=
EXTT2=
EXTT3=
EXTT4=
EXTT5=
EXTT6=
EXTT7=
EXTT8=
EXTT9=
EXTT10=
EXTT11=
EXTT12=
EXTT13=
EXTT14=
EXTT15=
EXTT16=
PLAYORDER=
